<svg width="22" height="23" viewBox="0 0 22 23" fill="none" xmlns="http://www.w3.org/2000/svg">
<path d="M11 21.6367C16.5228 21.6367 21 17.1596 21 11.6367C21 6.11387 16.5228 1.63672 11 1.63672C5.47715 1.63672 1 6.11387 1 11.6367C1 17.1596 5.47715 21.6367 11 21.6367Z" stroke="#9D9B9B" stroke-width="2" stroke-linecap="round" stroke-linejoin="round"/>
<path d="M8.09375 8.63729C8.32885 7.96896 8.7929 7.4054 9.4037 7.04642C10.0145 6.68745 10.7326 6.55623 11.4309 6.676C12.1292 6.79577 12.7626 7.15881 13.2188 7.70082C13.6751 8.24282 13.9248 8.92881 13.9237 9.63729C13.9237 11.6373 10.9237 12.6373 10.9237 12.6373" stroke="#9D9B9B" stroke-width="2" stroke-linecap="round" stroke-linejoin="round"/>
<path d="M11 16.6367H11.01" stroke="#9D9B9B" stroke-width="2" stroke-linecap="round" stroke-linejoin="round"/>
</svg>
