<svg width="52" height="52" viewBox="0 0 52 52" fill="none" xmlns="http://www.w3.org/2000/svg">
<circle cx="25.7621" cy="25.7621" r="25.7621" fill="#0D6C37" fill-opacity="0.1"/>
<path d="M30.7382 22.1367C32.645 22.1367 34.4737 22.8942 35.8219 24.2425C37.1702 25.5907 37.9277 27.4194 37.9277 29.3261V37.7138H33.1347V29.3261C33.1347 28.6906 32.8822 28.081 32.4328 27.6316C31.9834 27.1821 31.3738 26.9297 30.7382 26.9297C30.1027 26.9297 29.4931 27.1821 29.0437 27.6316C28.5943 28.081 28.3418 28.6906 28.3418 29.3261V37.7138H23.5488V29.3261C23.5488 27.4194 24.3063 25.5907 25.6546 24.2425C27.0028 22.8942 28.8315 22.1367 30.7382 22.1367Z" stroke="#0D6C37" stroke-width="2" stroke-linecap="round" stroke-linejoin="round"/>
<path d="M18.7558 23.334H13.9629V37.7128H18.7558V23.334Z" stroke="#0D6C37" stroke-width="2" stroke-linecap="round" stroke-linejoin="round"/>
<path d="M16.3594 19.7402C17.6829 19.7402 18.7558 18.6673 18.7558 17.3437C18.7558 16.0202 17.6829 14.9473 16.3594 14.9473C15.0358 14.9473 13.9629 16.0202 13.9629 17.3437C13.9629 18.6673 15.0358 19.7402 16.3594 19.7402Z" stroke="#0D6C37" stroke-width="2" stroke-linecap="round" stroke-linejoin="round"/>
</svg>
