<svg width="20" height="23" viewBox="0 0 20 23" fill="none" xmlns="http://www.w3.org/2000/svg">
<path d="M16 7.63672C16 6.04542 15.3679 4.5193 14.2426 3.39408C13.1174 2.26886 11.5913 1.63672 10 1.63672C8.4087 1.63672 6.88258 2.26886 5.75736 3.39408C4.63214 4.5193 4 6.04542 4 7.63672C4 14.6367 1 16.6367 1 16.6367H19C19 16.6367 16 14.6367 16 7.63672Z" stroke="#9D9B9B" stroke-width="2" stroke-linecap="round" stroke-linejoin="round"/>
<path d="M11.7256 20.6367C11.5498 20.9398 11.2975 21.1914 10.9939 21.3662C10.6902 21.5411 10.346 21.6332 9.99562 21.6332C9.64525 21.6332 9.30101 21.5411 8.9974 21.3662C8.69378 21.1914 8.44144 20.9398 8.26562 20.6367" stroke="#9D9B9B" stroke-width="2" stroke-linecap="round" stroke-linejoin="round"/>
</svg>
