<svg id="orders" width="18" height="23" viewBox="0 0 18 23" xmlns="http://www.w3.org/2000/svg">
<path fill-rule="evenodd" clip-rule="evenodd" d="M1.30546 1.69218C1.82118 1.17645 2.52065 0.886719 3.25 0.886719H11.25C11.4489 0.886719 11.6397 0.965736 11.7803 1.10639L17.7803 7.10639C17.921 7.24704 18 7.43781 18 7.63672V8.63672V19.6367C18 20.3661 17.7103 21.0655 17.1945 21.5813C16.6788 22.097 15.9793 22.3867 15.25 22.3867H3.25C2.52065 22.3867 1.82118 22.097 1.30546 21.5813C0.789731 21.0655 0.5 20.3661 0.5 19.6367V3.63672C0.5 2.90737 0.789731 2.2079 1.30546 1.69218ZM12 3.44738L16.4393 7.88672H12V3.44738ZM10.5 2.63672C10.5 2.54906 10.515 2.46491 10.5427 2.38672H3.25C2.91848 2.38672 2.60054 2.51841 2.36612 2.75284C2.1317 2.98726 2 3.3052 2 3.63672V19.6367C2 19.9682 2.1317 20.2862 2.36612 20.5206C2.60054 20.755 2.91848 20.8867 3.25 20.8867H15.25C15.5815 20.8867 15.8995 20.755 16.1339 20.5206C16.3683 20.2862 16.5 19.9682 16.5 19.6367V9.38672H11.25C10.8358 9.38672 10.5 9.05093 10.5 8.63672V2.63672ZM5.25 11.8867C4.83579 11.8867 4.5 12.2225 4.5 12.6367C4.5 13.0509 4.83579 13.3867 5.25 13.3867H13.25C13.6642 13.3867 14 13.0509 14 12.6367C14 12.2225 13.6642 11.8867 13.25 11.8867H5.25ZM4.5 16.6367C4.5 16.2225 4.83579 15.8867 5.25 15.8867H13.25C13.6642 15.8867 14 16.2225 14 16.6367C14 17.0509 13.6642 17.3867 13.25 17.3867H5.25C4.83579 17.3867 4.5 17.0509 4.5 16.6367ZM5.25 7.88672C4.83579 7.88672 4.5 8.22251 4.5 8.63672C4.5 9.05093 4.83579 9.38672 5.25 9.38672H6.25H7.25C7.66421 9.38672 8 9.05093 8 8.63672C8 8.22251 7.66421 7.88672 7.25 7.88672H6.25H5.25Z"/>
</svg>
