<svg width="53" height="52" viewBox="0 0 53 52" fill="none" xmlns="http://www.w3.org/2000/svg">
<circle cx="26.3949" cy="25.7621" r="25.7621" fill="#0D6C37" fill-opacity="0.1"/>
<path d="M38.9338 19.6751C38.7914 19.1065 38.5015 18.5854 38.0934 18.1646C37.6852 17.7439 37.1732 17.4382 36.6092 17.2787C34.5482 16.7754 26.3043 16.7754 26.3043 16.7754C26.3043 16.7754 18.0605 16.7754 15.9995 17.3266C15.4354 17.4862 14.9235 17.7918 14.5153 18.2126C14.1071 18.6333 13.8173 19.1544 13.6749 19.7231C13.2977 21.8146 13.1132 23.9364 13.1237 26.0617C13.1103 28.203 13.2948 30.341 13.6749 32.4483C13.8318 32.9993 14.1282 33.5006 14.5354 33.9036C14.9426 34.3066 15.4469 34.5977 15.9995 34.7489C18.0605 35.3001 26.3043 35.3001 26.3043 35.3001C26.3043 35.3001 34.5482 35.3001 36.6092 34.7489C37.1732 34.5894 37.6852 34.2837 38.0934 33.863C38.5015 33.4422 38.7914 32.9211 38.9338 32.3525C39.308 30.2766 39.4925 28.171 39.4849 26.0617C39.4984 23.9204 39.3139 21.7825 38.9338 19.6751Z" stroke="#2C6E59" stroke-width="2" stroke-linecap="round" stroke-linejoin="round"/>
<path d="M23.6074 29.979L30.4973 26.0608L23.6074 22.1426V29.979Z" stroke="#2C6E59" stroke-width="2" stroke-linecap="round" stroke-linejoin="round"/>
</svg>
